# xmcd
#
# Track frame offsets:
#	150
#	18087
#	32660
#	47355
#	59625
#	72500
#	86805
#	98202
#	116927
#	129147
#
# Disc length: 1897 seconds
#
# Revision: 1
# Processed by: cddbd v1.5.1PL0 Copyright (c) Steve Scherf et al.
# Submitted via: audiograbber 1.83.01
#
DISCID=8307670a
DTITLE=Various Artist - It Don't Mean a Thing
DYEAR=1900
DGENRE=
TTITLE0=Louis Armstrong and Duke Ellington - It Don't Mean A Thing (If It Ain't G
TTITLE0=ot That Swing)
TTITLE1=Benny Goodman And His Orchestra - Stompin' At The Savoy
TTITLE2=Amos Milburn - One Scotch, One Bourbon, One Beer
TTITLE3=Louis Jordan and His Tympany Five - Choo Choo Ch' Boogie
TTITLE4=The Moderators - In The Mood
TTITLE5=Count Basie - Jumpin' At The Woodside
TTITLE6=Julia Lee and her Boyfriends - Last Call (for Alcohol)
TTITLE7=Louis Prima - Sing, Sing, Sing
TTITLE8=Anita O'Day - Them There Eyes
TTITLE9=Woody Herman - Caldonia
EXTD=
EXTT0=
EXTT1=
EXTT2=
EXTT3=
EXTT4=
EXTT5=
EXTT6=
EXTT7=
EXTT8=
EXTT9=
PLAYORDER=
